USFL
nRows=285
nColumns=2
inDegrees=yes
endheader
time	tib_ant_r	
2.96069	 61.478622	
2.99395	 61.473070	
3.02722	 61.474861	
3.06048	 61.476150	
3.09375	 61.486298	
3.12702	 61.471560	
3.16028	 61.465723	
3.19355	 61.467293	
3.22681	 61.469776	
3.26008	 61.485991	
3.29335	 61.470736	
3.32661	 61.472676	
3.35988	 61.457453	
3.39315	 61.456528	
3.42641	 61.453584	
3.45968	 61.450152	
3.49294	 61.454844	
3.52621	 61.434336	
3.55948	 61.441459	
3.59274	 61.447108	
3.62601	 61.448963	
3.65927	 61.446232	
3.69254	 61.443240	
3.72581	 61.461921	
3.75907	 61.449293	
3.79234	 61.450870	
3.8256	 61.434893	
3.85887	 61.451605	
3.89214	 61.445599	
3.9254	 61.441846	
3.95867	 61.441217	
3.99194	 61.466655	
4.0252	 61.458046	
4.05847	 61.470472	
4.09173	 61.475610	
4.125	 61.470079	
4.15827	 61.474083	
4.19153	 61.458173	
4.2248	 61.456644	
4.25806	 61.453452	
4.29133	 61.451139	
4.3246	 61.451672	
4.35786	 61.451314	
4.39113	 61.450381	
4.4244	 61.442098	
4.45766	 61.445646	
4.49093	 61.441406	
4.52419	 61.448189	
4.55746	 61.463473	
4.59073	 61.465395	
4.62399	 61.465730	
4.65726	 61.462990	
4.69052	 61.466265	
4.72379	 61.459713	
4.75706	 61.458737	
4.79032	 61.450486	
4.82359	 61.440108	
4.85685	 61.451716	
4.89012	 61.447069	
4.92339	 61.459651	
4.95665	 61.468683	
4.98992	 61.467446	
5.02319	 61.458832	
5.05645	 61.443023	
5.08972	 61.444826	
5.12298	 61.448791	
5.15625	 61.443424	
5.18952	 61.459682	
5.22278	 61.464450	
5.25605	 61.456276	
5.28931	 61.452978	
5.32258	 61.450381	
5.35585	 61.436216	
5.38911	 61.447332	
5.42238	 61.440263	
5.45565	 61.426188	
5.48891	 61.462061	
5.52218	 61.542337	
5.55544	 61.229686	
5.58871	 61.028719	
5.62198	 61.062017	
5.65524	 60.624665	
5.68851	 60.183112	
5.72177	 60.234213	
5.75504	 59.860467	
5.78831	 59.856439	
5.82157	 59.989697	
5.85484	 59.826912	
5.8881	 59.993014	
5.92137	 59.698659	
5.95464	 59.404045	
5.9879	 59.266993	
6.02117	 59.046363	
6.05444	 58.949800	
6.0877	 58.963333	
6.12097	 58.670860	
6.15423	 58.408572	
6.1875	 58.230187	
6.22077	 57.590524	
6.25403	 57.620944	
6.2873	 57.569466	
6.32056	 57.526238	
6.35383	 57.518631	
6.3871	 57.301034	
6.42036	 57.123536	
6.45363	 57.164895	
6.4869	 56.903431	
6.52016	 56.819548	
6.55343	 56.540366	
6.58669	 56.401055	
6.61996	 56.425304	
6.65323	 56.154588	
6.68649	 55.851062	
6.71976	 55.781365	
6.75302	 55.479795	
6.78629	 55.282266	
6.81956	 55.173032	
6.85282	 54.971817	
6.88609	 54.849427	
6.91935	 54.660512	
6.95262	 54.552291	
6.98589	 54.538504	
7.01915	 54.317345	
7.05242	 54.225229	
7.08569	 54.217555	
7.11895	 54.160443	
7.15222	 54.173165	
7.18548	 54.162579	
7.21875	 54.162601	
7.25202	 54.134003	
7.28528	 54.147847	
7.31855	 54.148483	
7.35181	 54.141629	
7.38508	 54.116112	
7.41835	 54.054943	
7.45161	 53.989951	
7.48488	 53.881319	
7.51815	 53.793055	
7.55141	 53.783033	
7.58468	 53.721421	
7.61794	 53.679842	
7.65121	 53.584864	
7.68448	 53.511937	
7.71774	 53.499637	
7.75101	 53.477785	
7.78427	 53.486183	
7.81754	 53.480446	
7.85081	 53.540864	
7.88407	 53.519305	
7.91734	 53.533871	
7.9506	 53.527174	
7.98387	 53.532331	
8.01714	 53.510473	
8.0504	 53.491044	
8.08367	 53.501157	
8.11694	 53.443390	
8.1502	 53.391117	
8.18347	 53.395455	
8.21673	 53.376509	
8.25	 53.369175	
8.28327	 53.355663	
8.31653	 53.272678	
8.3498	 53.182887	
8.38306	 53.154172	
8.41633	 53.164281	
8.4496	 53.145091	
8.48286	 53.149141	
8.51613	 53.204387	
8.5494	 53.206549	
8.58266	 53.176268	
8.61593	 53.145094	
8.64919	 53.134126	
8.68246	 53.154930	
8.71573	 53.139708	
8.74899	 53.142845	
8.78226	 53.170598	
8.81552	 53.215783	
8.84879	 53.329067	
8.88206	 53.353873	
8.91532	 53.366353	
8.94859	 53.314429	
8.98185	 53.304055	
9.01512	 53.296528	
9.04839	 53.287778	
9.08165	 53.291754	
9.11492	 53.244053	
9.14819	 53.225375	
9.18145	 53.168695	
9.21472	 53.150163	
9.24798	 53.097157	
9.28125	 53.119092	
9.31452	 53.043569	
9.34778	 52.925193	
9.38105	 52.917396	
9.41431	 52.860110	
9.44758	 52.753981	
9.48085	 52.805962	
9.51411	 52.876691	
9.54738	 52.899971	
9.58065	 52.919628	
9.61391	 52.925386	
9.64718	 52.922742	
9.68044	 52.923361	
9.71371	 52.930695	
9.74698	 52.927963	
9.78024	 53.008578	
9.81351	 53.029496	
9.84677	 53.032555	
9.88004	 53.016188	
9.91331	 52.994485	
9.94657	 53.008692	
9.97984	 53.013584	
10.0131	 53.027090	
10.0464	 53.074144	
10.0796	 53.117319	
10.1129	 53.116616	
10.1462	 53.211262	
10.1794	 53.173224	
10.2127	 53.225304	
10.246	 53.262305	
10.2792	 53.277546	
10.3125	 53.307468	
10.3458	 53.289442	
10.379	 53.300653	
10.4123	 53.325124	
10.4456	 53.356078	
10.4788	 53.345957	
10.5121	 53.449695	
10.5454	 53.291133	
10.5786	 53.425174	
10.6119	 53.571534	
10.6452	 53.396204	
10.6784	 53.285063	
10.7117	 53.295707	
10.745	 53.296470	
10.7782	 53.264872	
10.8115	 53.216697	
10.8448	 53.247826	
10.878	 53.402803	
10.9113	 53.367588	
10.9446	 53.292310	
10.9778	 53.147105	
11.0111	 53.118357	
11.0444	 53.226016	
11.0776	 53.388141	
11.1109	 53.396375	
11.1442	 53.476555	
11.1774	 53.543790	
11.2107	 53.589075	
11.244	 53.605923	
11.2772	 53.605180	
11.3105	 53.668653	
11.3437	 53.737808	
11.377	 53.678649	
11.4103	 53.989952	
11.4435	 54.246008	
11.4768	 54.292385	
11.5101	 54.559237	
11.5433	 54.848829	
11.5766	 55.082435	
11.6099	 55.217649	
11.6431	 55.328657	
11.6764	 55.358964	
11.7097	 55.455163	
11.7429	 55.595284	
11.7762	 55.603824	
11.8095	 55.662429	
11.8427	 55.656365	
11.876	 55.707850	
11.9093	 55.666848	
11.9425	 55.700343	
11.9758	 55.694980	
12.0091	 55.614325	
12.0423	 55.695389	
12.0756	 55.625295	
12.1089	 55.519508	
12.1421	 55.660170	
12.1754	 55.710064	
12.2087	 55.675900	
12.2419	 55.598040	
12.2752	 55.423249	
12.3085	 55.410274	
12.3417	 55.404860	
12.375	 55.405855	
12.4083	 55.328524	
